<?xml version="1.0" encoding="UTF-8" standalone="no"?><svg xmlns="http://www.w3.org/2000/svg" xmlns:xlink="http://www.w3.org/1999/xlink" contentScriptType="application/ecmascript" contentStyleType="text/css" height="546px" preserveAspectRatio="none" style="width:1316px;height:546px;background:#FFFFFF;" version="1.1" viewBox="0 0 1316 546" width="1316px" zoomAndPan="magnify"><defs><filter height="300%" id="f1x4b3xwix2ggd" width="300%" x="-1" y="-1"><feGaussianBlur result="blurOut" stdDeviation="2.0"/><feColorMatrix in="blurOut" result="blurOut2" type="matrix" values="0 0 0 0 0 0 0 0 0 0 0 0 0 0 0 0 0 0 .4 0"/><feOffset dx="4.0" dy="4.0" in="blurOut2" result="blurOut3"/><feBlend in="SourceGraphic" in2="blurOut3" mode="normal"/></filter></defs><g><!--MD5=[603854bd387bdd448e743461de7d7297]
class people--><rect codeLine="1" fill="#FEFECE" filter="url(#f1x4b3xwix2ggd)" height="124.8281" id="people" style="stroke:#A80036;stroke-width:1.5;" width="297" x="122" y="7"/><ellipse cx="244.75" cy="23" fill="#ADD1B2" rx="11" ry="11" style="stroke:#A80036;stroke-width:1.0;"/><path d="M247.0938,18.6719 C246.1563,18.2344 245.5625,18.0938 244.6875,18.0938 C242.0625,18.0938 240.0625,20.1719 240.0625,22.8906 L240.0625,24.0156 C240.0625,26.5938 242.1719,28.4844 245.0625,28.4844 C246.2813,28.4844 247.4375,28.1875 248.1875,27.6406 C248.7656,27.2344 249.0938,26.7813 249.0938,26.3906 C249.0938,25.9375 248.7031,25.5469 248.2344,25.5469 C248.0156,25.5469 247.8125,25.625 247.625,25.8125 C247.1719,26.2969 247.1719,26.2969 246.9844,26.3906 C246.5625,26.6563 245.875,26.7813 245.1094,26.7813 C243.0625,26.7813 241.7656,25.6875 241.7656,23.9844 L241.7656,22.8906 C241.7656,21.1094 243.0156,19.7969 244.75,19.7969 C245.3281,19.7969 245.9375,19.9531 246.4063,20.2031 C246.8906,20.4844 247.0625,20.7031 247.1563,21.1094 C247.2188,21.5156 247.25,21.6406 247.3906,21.7656 C247.5313,21.9063 247.7656,22.0156 247.9844,22.0156 C248.25,22.0156 248.5156,21.875 248.6875,21.6563 C248.7969,21.5 248.8281,21.3125 248.8281,20.8906 L248.8281,19.4688 C248.8281,19.0313 248.8125,18.9063 248.7188,18.75 C248.5625,18.4844 248.2813,18.3438 247.9844,18.3438 C247.6875,18.3438 247.4844,18.4375 247.2656,18.75 L247.0938,18.6719 Z " fill="#000000"/><text fill="#000000" font-family="sans-serif" font-size="12" lengthAdjust="spacing" textLength="43" x="265.25" y="27.1543">people</text><line style="stroke:#A80036;stroke-width:1.5;" x1="123" x2="418" y1="39" y2="39"/><rect fill="none" height="6" style="stroke:#C82930;stroke-width:1.0;" width="6" x="130" y="47"/><text fill="#000000" font-family="sans-serif" font-size="11" lengthAdjust="spacing" textLength="127" x="142" y="53.2104">member:List&lt;Person&gt;</text><rect fill="none" height="6" style="stroke:#C82930;stroke-width:1.0;" width="6" x="130" y="59.8047"/><text fill="#000000" font-family="sans-serif" font-size="11" lengthAdjust="spacing" textLength="145" x="142" y="66.0151">sortStrategy:SortStrategy</text><line style="stroke:#A80036;stroke-width:1.5;" x1="123" x2="418" y1="72.6094" y2="72.6094"/><ellipse cx="133" cy="83.6094" fill="#84BE84" rx="3" ry="3" style="stroke:#038048;stroke-width:1.0;"/><text fill="#000000" font-family="sans-serif" font-size="11" lengthAdjust="spacing" textLength="48" x="142" y="86.8198">people()</text><ellipse cx="133" cy="96.4141" fill="#84BE84" rx="3" ry="3" style="stroke:#038048;stroke-width:1.0;"/><text fill="#000000" font-family="sans-serif" font-size="11" lengthAdjust="spacing" textLength="271" x="142" y="99.6245">setSortStrategy(SortStrategy sortStrategy):void</text><ellipse cx="133" cy="109.2188" fill="#84BE84" rx="3" ry="3" style="stroke:#038048;stroke-width:1.0;"/><text fill="#000000" font-family="sans-serif" font-size="11" lengthAdjust="spacing" textLength="152" x="142" y="112.4292">addMember(Person p):void</text><ellipse cx="133" cy="122.0234" fill="#84BE84" rx="3" ry="3" style="stroke:#038048;stroke-width:1.0;"/><text fill="#000000" font-family="sans-serif" font-size="11" lengthAdjust="spacing" textLength="148" x="142" y="125.2339">print(PrintStream out):void</text><!--MD5=[aa0c2778fb5f96eb4f6c19897dbd02c6]
class person--><rect codeLine="10" fill="#FEFECE" filter="url(#f1x4b3xwix2ggd)" height="201.6563" id="person" style="stroke:#A80036;stroke-width:1.5;" width="183" x="7" y="331"/><ellipse cx="72.75" cy="347" fill="#ADD1B2" rx="11" ry="11" style="stroke:#A80036;stroke-width:1.0;"/><path d="M75.0938,342.6719 C74.1563,342.2344 73.5625,342.0938 72.6875,342.0938 C70.0625,342.0938 68.0625,344.1719 68.0625,346.8906 L68.0625,348.0156 C68.0625,350.5938 70.1719,352.4844 73.0625,352.4844 C74.2813,352.4844 75.4375,352.1875 76.1875,351.6406 C76.7656,351.2344 77.0938,350.7813 77.0938,350.3906 C77.0938,349.9375 76.7031,349.5469 76.2344,349.5469 C76.0156,349.5469 75.8125,349.625 75.625,349.8125 C75.1719,350.2969 75.1719,350.2969 74.9844,350.3906 C74.5625,350.6563 73.875,350.7813 73.1094,350.7813 C71.0625,350.7813 69.7656,349.6875 69.7656,347.9844 L69.7656,346.8906 C69.7656,345.1094 71.0156,343.7969 72.75,343.7969 C73.3281,343.7969 73.9375,343.9531 74.4063,344.2031 C74.8906,344.4844 75.0625,344.7031 75.1563,345.1094 C75.2188,345.5156 75.25,345.6406 75.3906,345.7656 C75.5313,345.9063 75.7656,346.0156 75.9844,346.0156 C76.25,346.0156 76.5156,345.875 76.6875,345.6563 C76.7969,345.5 76.8281,345.3125 76.8281,344.8906 L76.8281,343.4688 C76.8281,343.0313 76.8125,342.9063 76.7188,342.75 C76.5625,342.4844 76.2813,342.3438 75.9844,342.3438 C75.6875,342.3438 75.4844,342.4375 75.2656,342.75 L75.0938,342.6719 Z " fill="#000000"/><text fill="#000000" font-family="sans-serif" font-size="12" lengthAdjust="spacing" textLength="43" x="93.25" y="351.1543">person</text><line style="stroke:#A80036;stroke-width:1.5;" x1="8" x2="189" y1="363" y2="363"/><rect fill="none" height="6" style="stroke:#C82930;stroke-width:1.0;" width="6" x="15" y="371"/><text fill="#000000" font-family="sans-serif" font-size="11" lengthAdjust="spacing" textLength="69" x="27" y="377.2104">name:String</text><rect fill="none" height="6" style="stroke:#C82930;stroke-width:1.0;" width="6" x="15" y="383.8047"/><text fill="#000000" font-family="sans-serif" font-size="11" lengthAdjust="spacing" textLength="39" x="27" y="390.0151">age:int</text><rect fill="none" height="6" style="stroke:#C82930;stroke-width:1.0;" width="6" x="15" y="396.6094"/><text fill="#000000" font-family="sans-serif" font-size="11" lengthAdjust="spacing" textLength="53" x="27" y="402.8198">height:int</text><rect fill="none" height="6" style="stroke:#C82930;stroke-width:1.0;" width="6" x="15" y="409.4141"/><text fill="#000000" font-family="sans-serif" font-size="11" lengthAdjust="spacing" textLength="55" x="27" y="415.6245">weight:int</text><line style="stroke:#A80036;stroke-width:1.5;" x1="8" x2="189" y1="422.2188" y2="422.2188"/><ellipse cx="18" cy="433.2188" fill="#84BE84" rx="3" ry="3" style="stroke:#038048;stroke-width:1.0;"/><text fill="#000000" font-family="sans-serif" font-size="11" lengthAdjust="spacing" textLength="97" x="27" y="436.4292">getName():String</text><ellipse cx="18" cy="446.0234" fill="#84BE84" rx="3" ry="3" style="stroke:#038048;stroke-width:1.0;"/><text fill="#000000" font-family="sans-serif" font-size="11" lengthAdjust="spacing" textLength="157" x="27" y="449.2339">setName(Name:String):void</text><ellipse cx="18" cy="458.8281" fill="#84BE84" rx="3" ry="3" style="stroke:#038048;stroke-width:1.0;"/><text fill="#000000" font-family="sans-serif" font-size="11" lengthAdjust="spacing" textLength="67" x="27" y="462.0386">getAge():int</text><ellipse cx="18" cy="471.6328" fill="#84BE84" rx="3" ry="3" style="stroke:#038048;stroke-width:1.0;"/><text fill="#000000" font-family="sans-serif" font-size="11" lengthAdjust="spacing" textLength="116" x="27" y="474.8433">setAge(Age:int):void</text><ellipse cx="18" cy="484.4375" fill="#84BE84" rx="3" ry="3" style="stroke:#038048;stroke-width:1.0;"/><text fill="#000000" font-family="sans-serif" font-size="11" lengthAdjust="spacing" textLength="81" x="27" y="487.6479">getHeight():int</text><ellipse cx="18" cy="497.2422" fill="#84BE84" rx="3" ry="3" style="stroke:#038048;stroke-width:1.0;"/><text fill="#000000" font-family="sans-serif" font-size="11" lengthAdjust="spacing" textLength="144" x="27" y="500.4526">setHeight(Height:int):void</text><ellipse cx="18" cy="510.0469" fill="#84BE84" rx="3" ry="3" style="stroke:#038048;stroke-width:1.0;"/><text fill="#000000" font-family="sans-serif" font-size="11" lengthAdjust="spacing" textLength="84" x="27" y="513.2573">getWeight():int</text><ellipse cx="18" cy="522.8516" fill="#84BE84" rx="3" ry="3" style="stroke:#038048;stroke-width:1.0;"/><text fill="#000000" font-family="sans-serif" font-size="11" lengthAdjust="spacing" textLength="150" x="27" y="526.062">setWeight(Weight:int):void</text><!--MD5=[24cac15c1f9aefe6275c5d949d6c000c]
class SortStrategy--><rect codeLine="24" fill="#FEFECE" filter="url(#f1x4b3xwix2ggd)" height="60.8047" id="SortStrategy" style="stroke:#A80036;stroke-width:1.5;" width="243" x="382" y="193"/><ellipse cx="460.75" cy="209" fill="#B4A7E5" rx="11" ry="11" style="stroke:#A80036;stroke-width:1.0;"/><path d="M461.7031,205.7813 L463.4219,205.7813 C463.8125,205.7813 464,205.75 464.125,205.6719 C464.3906,205.5156 464.5313,205.2344 464.5313,204.9375 C464.5313,204.6719 464.4219,204.4063 464.1875,204.2344 C464.0156,204.125 463.875,204.0938 463.4219,204.0938 L458.2813,204.0938 C457.8438,204.0938 457.7188,204.1094 457.5625,204.2031 C457.3125,204.3594 457.1563,204.6563 457.1563,204.9375 C457.1563,205.2188 457.2969,205.4688 457.5156,205.6406 C457.6719,205.75 457.8594,205.7813 458.2813,205.7813 L460,205.7813 L460,212.2969 L458.2813,212.2969 C457.8438,212.2969 457.7188,212.3125 457.5625,212.4219 C457.3125,212.5781 457.1563,212.8594 457.1563,213.1563 C457.1563,213.4063 457.2969,213.6719 457.5156,213.8281 C457.6719,213.9531 457.875,214 458.2813,214 L463.4219,214 C464.1719,214 464.5313,213.7188 464.5313,213.1563 C464.5313,212.875 464.4219,212.625 464.1875,212.4531 C464.0156,212.3281 463.875,212.2969 463.4219,212.2969 L461.7031,212.2969 L461.7031,205.7813 Z " fill="#000000"/><text fill="#000000" font-family="sans-serif" font-size="12" font-style="italic" lengthAdjust="spacing" textLength="77" x="481.25" y="213.1543">SortStrategy</text><line style="stroke:#A80036;stroke-width:1.5;" x1="383" x2="624" y1="225" y2="225"/><line style="stroke:#A80036;stroke-width:1.5;" x1="383" x2="624" y1="233" y2="233"/><ellipse cx="393" cy="244" fill="#84BE84" rx="3" ry="3" style="stroke:#038048;stroke-width:1.0;"/><text fill="#000000" font-family="sans-serif" font-size="11" lengthAdjust="spacing" textLength="217" x="402" y="247.2104">customSort(people:List&lt;Person&gt;):void</text><!--MD5=[8e0a0a9ac050e6d846a9bccac69c9fbb]
class AgeSortStrategy--><rect codeLine="27" fill="#FEFECE" filter="url(#f1x4b3xwix2ggd)" height="60.8047" id="AgeSortStrategy" style="stroke:#A80036;stroke-width:1.5;" width="243" x="225" y="401.5"/><ellipse cx="292.25" cy="417.5" fill="#ADD1B2" rx="11" ry="11" style="stroke:#A80036;stroke-width:1.0;"/><path d="M294.5938,413.1719 C293.6563,412.7344 293.0625,412.5938 292.1875,412.5938 C289.5625,412.5938 287.5625,414.6719 287.5625,417.3906 L287.5625,418.5156 C287.5625,421.0938 289.6719,422.9844 292.5625,422.9844 C293.7813,422.9844 294.9375,422.6875 295.6875,422.1406 C296.2656,421.7344 296.5938,421.2813 296.5938,420.8906 C296.5938,420.4375 296.2031,420.0469 295.7344,420.0469 C295.5156,420.0469 295.3125,420.125 295.125,420.3125 C294.6719,420.7969 294.6719,420.7969 294.4844,420.8906 C294.0625,421.1563 293.375,421.2813 292.6094,421.2813 C290.5625,421.2813 289.2656,420.1875 289.2656,418.4844 L289.2656,417.3906 C289.2656,415.6094 290.5156,414.2969 292.25,414.2969 C292.8281,414.2969 293.4375,414.4531 293.9063,414.7031 C294.3906,414.9844 294.5625,415.2031 294.6563,415.6094 C294.7188,416.0156 294.75,416.1406 294.8906,416.2656 C295.0313,416.4063 295.2656,416.5156 295.4844,416.5156 C295.75,416.5156 296.0156,416.375 296.1875,416.1563 C296.2969,416 296.3281,415.8125 296.3281,415.3906 L296.3281,413.9688 C296.3281,413.5313 296.3125,413.4063 296.2188,413.25 C296.0625,412.9844 295.7813,412.8438 295.4844,412.8438 C295.1875,412.8438 294.9844,412.9375 294.7656,413.25 L294.5938,413.1719 Z " fill="#000000"/><text fill="#000000" font-family="sans-serif" font-size="12" lengthAdjust="spacing" textLength="100" x="312.75" y="421.6543">AgeSortStrategy</text><line style="stroke:#A80036;stroke-width:1.5;" x1="226" x2="467" y1="433.5" y2="433.5"/><line style="stroke:#A80036;stroke-width:1.5;" x1="226" x2="467" y1="441.5" y2="441.5"/><ellipse cx="236" cy="452.5" fill="#84BE84" rx="3" ry="3" style="stroke:#038048;stroke-width:1.0;"/><text fill="#000000" font-family="sans-serif" font-size="11" lengthAdjust="spacing" textLength="217" x="245" y="455.7104">customSort(people:List&lt;Person&gt;):void</text><!--MD5=[ae02baf58179ba852507205754c89be4]
class HeightSortStrategy--><rect codeLine="30" fill="#FEFECE" filter="url(#f1x4b3xwix2ggd)" height="60.8047" id="HeightSortStrategy" style="stroke:#A80036;stroke-width:1.5;" width="243" x="503" y="401.5"/><ellipse cx="562.75" cy="417.5" fill="#ADD1B2" rx="11" ry="11" style="stroke:#A80036;stroke-width:1.0;"/><path d="M565.0938,413.1719 C564.1563,412.7344 563.5625,412.5938 562.6875,412.5938 C560.0625,412.5938 558.0625,414.6719 558.0625,417.3906 L558.0625,418.5156 C558.0625,421.0938 560.1719,422.9844 563.0625,422.9844 C564.2813,422.9844 565.4375,422.6875 566.1875,422.1406 C566.7656,421.7344 567.0938,421.2813 567.0938,420.8906 C567.0938,420.4375 566.7031,420.0469 566.2344,420.0469 C566.0156,420.0469 565.8125,420.125 565.625,420.3125 C565.1719,420.7969 565.1719,420.7969 564.9844,420.8906 C564.5625,421.1563 563.875,421.2813 563.1094,421.2813 C561.0625,421.2813 559.7656,420.1875 559.7656,418.4844 L559.7656,417.3906 C559.7656,415.6094 561.0156,414.2969 562.75,414.2969 C563.3281,414.2969 563.9375,414.4531 564.4063,414.7031 C564.8906,414.9844 565.0625,415.2031 565.1563,415.6094 C565.2188,416.0156 565.25,416.1406 565.3906,416.2656 C565.5313,416.4063 565.7656,416.5156 565.9844,416.5156 C566.25,416.5156 566.5156,416.375 566.6875,416.1563 C566.7969,416 566.8281,415.8125 566.8281,415.3906 L566.8281,413.9688 C566.8281,413.5313 566.8125,413.4063 566.7188,413.25 C566.5625,412.9844 566.2813,412.8438 565.9844,412.8438 C565.6875,412.8438 565.4844,412.9375 565.2656,413.25 L565.0938,413.1719 Z " fill="#000000"/><text fill="#000000" font-family="sans-serif" font-size="12" lengthAdjust="spacing" textLength="115" x="583.25" y="421.6543">HeightSortStrategy</text><line style="stroke:#A80036;stroke-width:1.5;" x1="504" x2="745" y1="433.5" y2="433.5"/><line style="stroke:#A80036;stroke-width:1.5;" x1="504" x2="745" y1="441.5" y2="441.5"/><ellipse cx="514" cy="452.5" fill="#84BE84" rx="3" ry="3" style="stroke:#038048;stroke-width:1.0;"/><text fill="#000000" font-family="sans-serif" font-size="11" lengthAdjust="spacing" textLength="217" x="523" y="455.7104">customSort(people:List&lt;Person&gt;):void</text><!--MD5=[6b1b16963de3ac98b715edbb6b5898d8]
class NameSortStrategy--><rect codeLine="33" fill="#FEFECE" filter="url(#f1x4b3xwix2ggd)" height="60.8047" id="NameSortStrategy" style="stroke:#A80036;stroke-width:1.5;" width="243" x="781" y="401.5"/><ellipse cx="843.25" cy="417.5" fill="#ADD1B2" rx="11" ry="11" style="stroke:#A80036;stroke-width:1.0;"/><path d="M845.5938,413.1719 C844.6563,412.7344 844.0625,412.5938 843.1875,412.5938 C840.5625,412.5938 838.5625,414.6719 838.5625,417.3906 L838.5625,418.5156 C838.5625,421.0938 840.6719,422.9844 843.5625,422.9844 C844.7813,422.9844 845.9375,422.6875 846.6875,422.1406 C847.2656,421.7344 847.5938,421.2813 847.5938,420.8906 C847.5938,420.4375 847.2031,420.0469 846.7344,420.0469 C846.5156,420.0469 846.3125,420.125 846.125,420.3125 C845.6719,420.7969 845.6719,420.7969 845.4844,420.8906 C845.0625,421.1563 844.375,421.2813 843.6094,421.2813 C841.5625,421.2813 840.2656,420.1875 840.2656,418.4844 L840.2656,417.3906 C840.2656,415.6094 841.5156,414.2969 843.25,414.2969 C843.8281,414.2969 844.4375,414.4531 844.9063,414.7031 C845.3906,414.9844 845.5625,415.2031 845.6563,415.6094 C845.7188,416.0156 845.75,416.1406 845.8906,416.2656 C846.0313,416.4063 846.2656,416.5156 846.4844,416.5156 C846.75,416.5156 847.0156,416.375 847.1875,416.1563 C847.2969,416 847.3281,415.8125 847.3281,415.3906 L847.3281,413.9688 C847.3281,413.5313 847.3125,413.4063 847.2188,413.25 C847.0625,412.9844 846.7813,412.8438 846.4844,412.8438 C846.1875,412.8438 845.9844,412.9375 845.7656,413.25 L845.5938,413.1719 Z " fill="#000000"/><text fill="#000000" font-family="sans-serif" font-size="12" lengthAdjust="spacing" textLength="110" x="863.75" y="421.6543">NameSortStrategy</text><line style="stroke:#A80036;stroke-width:1.5;" x1="782" x2="1023" y1="433.5" y2="433.5"/><line style="stroke:#A80036;stroke-width:1.5;" x1="782" x2="1023" y1="441.5" y2="441.5"/><ellipse cx="792" cy="452.5" fill="#84BE84" rx="3" ry="3" style="stroke:#038048;stroke-width:1.0;"/><text fill="#000000" font-family="sans-serif" font-size="11" lengthAdjust="spacing" textLength="217" x="801" y="455.7104">customSort(people:List&lt;Person&gt;):void</text><!--MD5=[1267f38af45ef172808e7f12d65c7ed7]
class WeightSortStrategy--><rect codeLine="36" fill="#FEFECE" filter="url(#f1x4b3xwix2ggd)" height="60.8047" id="WeightSortStrategy" style="stroke:#A80036;stroke-width:1.5;" width="243" x="1059" y="401.5"/><ellipse cx="1117.25" cy="417.5" fill="#ADD1B2" rx="11" ry="11" style="stroke:#A80036;stroke-width:1.0;"/><path d="M1119.5938,413.1719 C1118.6563,412.7344 1118.0625,412.5938 1117.1875,412.5938 C1114.5625,412.5938 1112.5625,414.6719 1112.5625,417.3906 L1112.5625,418.5156 C1112.5625,421.0938 1114.6719,422.9844 1117.5625,422.9844 C1118.7813,422.9844 1119.9375,422.6875 1120.6875,422.1406 C1121.2656,421.7344 1121.5938,421.2813 1121.5938,420.8906 C1121.5938,420.4375 1121.2031,420.0469 1120.7344,420.0469 C1120.5156,420.0469 1120.3125,420.125 1120.125,420.3125 C1119.6719,420.7969 1119.6719,420.7969 1119.4844,420.8906 C1119.0625,421.1563 1118.375,421.2813 1117.6094,421.2813 C1115.5625,421.2813 1114.2656,420.1875 1114.2656,418.4844 L1114.2656,417.3906 C1114.2656,415.6094 1115.5156,414.2969 1117.25,414.2969 C1117.8281,414.2969 1118.4375,414.4531 1118.9063,414.7031 C1119.3906,414.9844 1119.5625,415.2031 1119.6563,415.6094 C1119.7188,416.0156 1119.75,416.1406 1119.8906,416.2656 C1120.0313,416.4063 1120.2656,416.5156 1120.4844,416.5156 C1120.75,416.5156 1121.0156,416.375 1121.1875,416.1563 C1121.2969,416 1121.3281,415.8125 1121.3281,415.3906 L1121.3281,413.9688 C1121.3281,413.5313 1121.3125,413.4063 1121.2188,413.25 C1121.0625,412.9844 1120.7813,412.8438 1120.4844,412.8438 C1120.1875,412.8438 1119.9844,412.9375 1119.7656,413.25 L1119.5938,413.1719 Z " fill="#000000"/><text fill="#000000" font-family="sans-serif" font-size="12" lengthAdjust="spacing" textLength="118" x="1137.75" y="421.6543">WeightSortStrategy</text><line style="stroke:#A80036;stroke-width:1.5;" x1="1060" x2="1301" y1="433.5" y2="433.5"/><line style="stroke:#A80036;stroke-width:1.5;" x1="1060" x2="1301" y1="441.5" y2="441.5"/><ellipse cx="1070" cy="452.5" fill="#84BE84" rx="3" ry="3" style="stroke:#038048;stroke-width:1.0;"/><text fill="#000000" font-family="sans-serif" font-size="11" lengthAdjust="spacing" textLength="217" x="1079" y="455.7104">customSort(people:List&lt;Person&gt;):void</text><!--MD5=[52ad52f8e047c32bd8c154980850220b]
reverse link SortStrategy to AgeSortStrategy--><path d="M468.845,270.081 C438.417,310.103 395.049,367.144 368.953,401.468 " fill="none" id="SortStrategy-backto-AgeSortStrategy" style="stroke:#A80036;stroke-width:1.0;stroke-dasharray:7.0,7.0;"/><polygon fill="none" points="463.329,265.771,481.006,254.086,474.473,274.244,463.329,265.771" style="stroke:#A80036;stroke-width:1.0;"/><!--MD5=[d0c7a563b171ad5f17e28c7b104f5cab]
reverse link SortStrategy to HeightSortStrategy--><path d="M530.997,271.427 C554.404,311.373 587.308,367.527 607.196,401.468 " fill="none" id="SortStrategy-backto-HeightSortStrategy" style="stroke:#A80036;stroke-width:1.0;stroke-dasharray:7.0,7.0;"/><polygon fill="none" points="524.908,274.881,520.836,254.086,536.987,267.803,524.908,274.881" style="stroke:#A80036;stroke-width:1.0;"/><!--MD5=[0fba23228dfbc735298fb8cc037ac0b1]
reverse link SortStrategy to NameSortStrategy--><path d="M608.605,261.088 C657.003,279.553 714.445,303.805 763.5,331 C800.42,351.468 839.149,379.997 866.321,401.347 " fill="none" id="SortStrategy-backto-NameSortStrategy" style="stroke:#A80036;stroke-width:1.0;stroke-dasharray:7.0,7.0;"/><polygon fill="none" points="606.114,267.63,589.85,254.047,611.034,254.523,606.114,267.63" style="stroke:#A80036;stroke-width:1.0;"/><!--MD5=[9251a9a3a8cc3a1a4707b05f3f2e6bff]
reverse link SortStrategy to WeightSortStrategy--><path d="M645.072,235.882 C756.523,248.722 913.818,275.576 1041.5,331 C1081.45,348.342 1121.2,378.584 1147.89,401.283 " fill="none" id="SortStrategy-backto-WeightSortStrategy" style="stroke:#A80036;stroke-width:1.0;stroke-dasharray:7.0,7.0;"/><polygon fill="none" points="644.27,242.837,625.161,233.681,645.809,228.921,644.27,242.837" style="stroke:#A80036;stroke-width:1.0;"/><!--MD5=[f67be635c2384bd150cb3bf47532bbe5]
link people to SortStrategy--><path codeLine="39" d="M374.9846,138.6613 C374.9846,138.6613 425.549,171.648 446.964,185.618 " fill="none" id="people-SortStrategy" style="stroke:#A80036;stroke-width:1.0;"/><polygon fill="#A80036" points="458.125,192.899,452.7729,184.6313,453.9374,190.167,448.4017,191.3314,458.125,192.899" style="stroke:#A80036;stroke-width:1.0;"/><line style="stroke:#A80036;stroke-width:1.0;" x1="453.9374" x2="447.237" y1="190.167" y2="185.7965"/><polygon fill="#A80036" points="364.934,132.105,367.7739,138.7333,374.9846,138.6613,372.1447,132.0329,364.934,132.105" style="stroke:#A80036;stroke-width:1.0;"/><text fill="#000000" font-family="sans-serif" font-size="13" lengthAdjust="spacing" textLength="86" x="353.8977" y="182.1414">-SortStrategy</text><!--MD5=[9a76add0ca9583cef197083b0e421b81]
link people to person--><path codeLine="40" d="M235.9601,142.8932 C235.9601,142.8932 179.187,261.887 151.991,318.886 " fill="none" id="people-person" style="stroke:#A80036;stroke-width:1.0;"/><polygon fill="#A80036" points="146.27,330.877,153.7553,324.4762,148.4228,326.3642,146.5348,321.0317,146.27,330.877" style="stroke:#A80036;stroke-width:1.0;"/><line style="stroke:#A80036;stroke-width:1.0;" x1="148.4228" x2="151.8685" y1="326.3642" y2="319.144"/><polygon fill="#A80036" points="241.128,132.063,234.934,135.7555,235.9601,142.8932,242.1541,139.2007,241.128,132.063" style="stroke:#A80036;stroke-width:1.0;"/><text fill="#000000" font-family="sans-serif" font-size="13" lengthAdjust="spacing" textLength="27" x="121.7867" y="319.9844">0...*</text><!--MD5=[187c98ce94b1ab2880cca7a8a92dda3e]
link SortStrategy to person--><path codeLine="41" d="M389.125,254.023 C332.125,271.568 263.581,297.088 207.5,331 C203.132,333.641 198.786,336.475 194.484,339.455 " fill="none" id="SortStrategy-to-person" style="stroke:#A80036;stroke-width:1.0;stroke-dasharray:7.0,7.0;"/><polygon fill="#A80036" points="190.197,342.483,199.8556,340.5565,194.2806,339.5978,195.2393,334.0228,190.197,342.483" style="stroke:#A80036;stroke-width:1.0;"/><text fill="#000000" font-family="sans-serif" font-size="13" lengthAdjust="spacing" textLength="39" x="301.5" y="297.0669">«use»</text><!--MD5=[26c19ae8e12be84ee9758f1cda30b3f0]
@startuml
class people {
    -member:List<Person>
    -sortStrategy:SortStrategy
    +people()
    +setSortStrategy(SortStrategy sortStrategy):void
    +addMember(Person p):void
    +print(PrintStream out):void
}

class person{
    -name:String
    -age:int
    -height:int
    -weight:int
    +getName():String
    +setName(Name:String):void
    +getAge():int
    +setAge(Age:int):void
    +getHeight():int
    +setHeight(Height:int):void
    +getWeight():int
    +setWeight(Weight:int):void
}
interface SortStrategy {
    +customSort(people:List<Person>):void
}
class AgeSortStrategy implements SortStrategy {
    +customSort(people:List<Person>):void
}
class HeightSortStrategy implements SortStrategy {
    +customSort(people:List<Person>):void
}
class NameSortStrategy implements SortStrategy {
    +customSort(people:List<Person>):void
}
class WeightSortStrategy implements SortStrategy {
    +customSort(people:List<Person>):void
}
people *- ->"-SortStrategy" SortStrategy
people *- ->"0...*" person
SortStrategy ..> person : <<use>>
@enduml

PlantUML version 1.2021.14beta2(Unknown compile time)
(GPL source distribution)
Java Runtime: Java(TM) SE Runtime Environment
JVM: Java HotSpot(TM) 64-Bit Server VM
Default Encoding: UTF-8
Language: en
Country: US
--></g></svg>